<?xml version="1.0" encoding="utf-8"?>
<!-- Generator: Adobe Illustrator 24.0.2, SVG Export Plug-In . SVG Version: 6.00 Build 0)  -->
<svg version="1.1" xmlns="http://www.w3.org/2000/svg" xmlns:xlink="http://www.w3.org/1999/xlink" x="0px" y="0px"
	 viewBox="0 0 50 12" style="enable-background:new 0 0 50 12;" xml:space="preserve">
<style type="text/css">
	.st0{fill-rule:evenodd;clip-rule:evenodd;}
</style>
<path class="st0" d="M3.4,0.6h13.9l-1,3.3h-8L7.7,5.3h8l-1,3.2h-8l-0.8,2.6H0L3.4,0.6L3.4,0.6z M40.4,3.9H50l-0.7,2.3h-2.8L44.9,11
	h-4.1l1.6-4.8h-2.7L40.4,3.9L40.4,3.9z M39.6,4c-0.2,0.6-0.5,1.4-0.7,2.1c-1.3-0.2-3.3-0.3-4.9-0.2c-0.3,0-0.7,0-0.9,0.3
	c-0.2,0.5,0.2,0.5,0.6,0.5h2.3c1.5,0,2.7,0.2,2.2,2.6c-0.6,2.3-4.1,2.1-6.1,2.1c-1.5,0-3.4-0.1-5-0.4l0.6-1.7
	c1.7,0.2,3.7,0.3,5.4,0.2c0.6,0,0.7-0.2,0.7-0.4s0-0.3-0.7-0.3c-1,0-3,0-3.5-0.2c-1.1-0.3-1.4-1.4-1-2.7c0.6-1.9,2.5-2.3,5.6-2.2
	C36.4,3.6,38.5,3.8,39.6,4L39.6,4z M19,3.9h7.2l0.2,7.1h-4l0-1h-3.6L18,11h-4.5L19,3.9L19,3.9z M22.2,5.6l0.1,2.9H20L22.2,5.6z"/>
</svg>
