<?xml version="1.0" encoding="UTF-8" standalone="no"?><svg xmlns:android="http://schemas.android.com/apk/res/android" height="700" width="700" xmlns="http://www.w3.org/2000/svg">
    <path d="M699.1,348.7c1.6,40.5 -5.4,80.1 -19.2,118.2c-16,44.4 -40.5,83.7 -72.7,118.2c-27.1,29 -57.9,53 -92.8,71.8c-33.6,18.1 -69.2,30.6 -107,36.9c-20.4,3.4 -40.9,5.3 -61.6,4.8c-54.2,-1.2 -105.6,-14 -153.8,-38.8c-37.4,-19.2 -70.5,-44.2 -98.9,-75.2C49.2,536.8 20.6,481.1 7.7,417.4c-5.3,-26.2 -7.8,-52.7 -6.7,-79.4c1.2,-32.3 6.6,-64 16.9,-94.9c10.7,-32.2 25.6,-62.1 45,-89.8c35.6,-50.8 81.5,-89.8 137.2,-117c32.8,-16 67.4,-26.5 103.5,-31.7c21,-3 42.1,-4 63.2,-3c46.4,2.4 90.6,13.7 132.4,34.1c58.2,28.5 105.9,69.3 142.4,122.9c27.6,40.5 45.9,84.8 52.9,133.4C697.4,310.8 697.7,329.8 699.1,348.7C698.6,348.7 699.5,348.7 699.1,348.7zM604,543.7c1.6,-2.1 2.7,-3.3 3.6,-4.7c9.7,-15.3 20.3,-30.2 28.9,-46c22.9,-41.9 34.4,-87.1 35,-134.8c0.2,-18.5 -1.6,-37.2 -3.8,-55.6c-5,-42.3 -19.8,-81.3 -41.8,-117.5c-29.6,-48.8 -69.2,-87.6 -118.7,-116.1C466,45.3 421.7,31.9 374.5,29c-36.3,-2.2 -72,2 -107.2,11.5C192,61 131.1,101.9 86.6,166.6c-33.6,48.9 -52.3,103.1 -56.3,162c-2,29.3 0,58.5 6.2,87.4c14,65.2 45.2,120.4 94.1,165.6c3.9,3.6 7.9,7.2 12.2,10.3c4.2,3 7.4,1.9 9.5,-2.9c0.7,-1.5 1.1,-3.1 1.5,-4.7c2.7,-9.4 5.2,-18.9 8,-28.3c1.9,-6.4 4.8,-7.2 10.2,-3.3c5.5,4 11,8.2 16.9,11.4c15.7,8.4 31.8,16.1 47.5,24.3c14.7,7.7 29.9,10.1 45.8,5.2c17.5,-5.4 34.8,-11.1 52.2,-16.7c15.2,-4.9 25.7,-0.5 31.7,14.4c3.8,9.4 6.6,19.2 9.8,28.8c0.9,2.7 1.9,5.4 2.8,8c1.4,-1.4 1.7,-2.6 1.8,-3.8c0.8,-8.9 1.3,-17.9 2.3,-26.8c0.6,-5.5 3.8,-8.5 8.6,-8.9c5,-0.4 7,3 8.6,6.9c1,2.3 2.1,4.5 3.5,7.5c1,-1.7 1.4,-2.4 1.8,-3.2c4.9,-10.2 7.9,-12.5 19,-11.2c8,0.9 16.1,2.8 23.7,5.4c19.8,6.7 38.1,4 54.9,-7.9c12.2,-8.7 24.4,-17.5 35.9,-27c24.6,-20.3 46,-43.4 59.6,-72.8c0.9,-1.9 3.1,-3.1 4.7,-4.6c0.9,2 2.7,4.1 2.4,5.9c-1.1,9 -2.6,18 -4.4,27C599.5,524.1 598.5,533.5 604,543.7z" fill="#269B33"/>
    <path d="M493.2,553.4c2.3,7.7 9.8,4 13.3,9.2c-3.9,2.2 -7.4,4.6 -11.2,6.2c-14.9,6.6 -30.8,6.3 -46.6,5.6c-3.2,-0.1 -6.3,-0.5 -9.5,-0.6c-4.5,-0.2 -6.7,-2.5 -5.3,-6.7c1.2,-3.6 3.5,-7 5.7,-10.2c1.1,-1.6 3,-2.6 4.6,-3.8c11.9,-9.5 13.8,-19.2 5.9,-32.4c-4.8,-8 -10.6,-15.4 -11.9,-25c-0.7,-5.6 -1.2,-11.2 -1.6,-16.9c-0.2,-2.6 0,-5.2 0,-9.1c-6.4,6.6 -6.9,13.8 -7.8,21c-1.2,10.5 -2.7,21 -4.5,31.5c-0.8,4.6 -3.8,8.1 -8.6,9.5c-8.5,2.5 -13.8,-1.2 -14,-10c-0.2,-9.8 -0.1,-19.7 -0.1,-29.5c0,-1.6 0,-3.2 0,-4.8c-0.6,-0.2 -1.1,-0.4 -1.7,-0.5c-2,4 -4.5,7.9 -5.8,12.1c-2.5,8.1 -4.2,16.4 -6.2,24.6c-2.1,8.6 -4.5,17.1 -10.9,23.7c-9.2,9.6 -25.9,12.5 -38.4,5.6c5,-3 9.4,-5.7 15,-9.1c-10.1,-5.1 -19,-7 -28.8,-4.4c-9.7,2.7 -16.3,9.6 -22.5,16.8c-9.1,10.4 -20.7,15.8 -34.1,16.3c-10.9,0.5 -22,0.4 -32.9,-1c-6.9,-0.9 -14.1,-3.5 -19.9,-7.2c-38.4,-24.3 -76.4,-49.2 -114.6,-73.9c-10.2,-6.6 -14.2,-16.8 -14.9,-28c-1.2,-19.3 -2,-38.6 -2.1,-57.9c0,-20.5 1.3,-40.9 1.4,-61.4c0,-8.6 0.3,-16.8 4,-24.8c6.9,-14.6 18.3,-24.5 32.8,-30.7c9.3,-3.9 19,-7 28.8,-9.3c12.5,-2.9 24,1 33.1,9.6c6.5,6.1 12.7,6.5 20.9,4.5c10.7,-2.6 21.9,-4.2 33,-4.9c16.3,-1 32.6,-1.1 48.9,-1.1c8.1,0 16.3,0.9 24.3,2.1c6,0.9 11.1,-0.5 16.1,-3.5c7.3,-4.4 11.8,-3.6 15.3,4.3c3,6.7 5.3,14.1 6.2,21.4c3.2,27.1 -7.5,49.1 -27,67.2c-17.4,16.1 -37.9,23.9 -61.7,21.6c-21.9,-2 -40.6,-11.1 -55.8,-27.1c-3.9,-4.1 -7.8,-7.1 -14.3,-5.2c4.7,15.4 9.3,30.3 26,36.9c1.7,0.7 3.3,1.6 4.8,2.6c4.2,3.1 5.1,7 1.3,10.6c-5.9,5.3 -12.2,10.4 -19,14.4c-11.7,6.9 -24,12.9 -36.1,19.3c-1.6,0.9 -3.2,1.8 -4.7,3.4c8.1,1.2 15.8,-0.5 23.4,-2.6c5.4,-1.5 10.6,-4 16.1,-5.4c3,-0.8 7,-1.4 9.4,0c1.4,0.7 0.5,5.6 0.6,8.5c0,0.8 -0.4,1.5 -0.7,3c1.5,-0.3 2.7,-0.3 3.4,-0.9c8.1,-5.7 16.4,-11.3 24.2,-17.4c2.9,-2.3 5,-5.8 6.8,-9.1c10,-18.2 19.3,-18.6 35.6,-16.7c14.3,1.6 28.1,5.3 41.4,10.8c1.1,0.5 3.6,0.3 3.8,-0.2c0.6,-1.3 0.8,-3.4 0,-4.6c-1.2,-1.9 -3.4,-3.1 -4.9,-4.8c-1.6,-2 -4.4,-4.6 -4,-6.4c0.6,-3.7 3.8,-6.6 8,-6.2c8.7,0.8 17.5,2 26.1,3.4c4.2,0.7 8.2,2.2 13.1,3.6c-2.5,-7.3 -10.8,-9.8 -10.9,-18.3c24.6,6.6 37.1,24.7 46.7,45.7c0.6,-0.2 1.2,-0.3 1.7,-0.5c0,-4.9 0.5,-9.9 -0.2,-14.8c-0.6,-3.9 -2.5,-7.5 -4,-11.2c-1.2,-2.9 -2.9,-5.7 -3.5,-8.8c-0.5,-2.7 -0.8,-6.6 0.7,-8.2c1.5,-1.6 5.6,-1.7 8.2,-1.1c12.2,2.9 24.3,5.3 36.9,5.3c15.4,0 30,-3.1 44.3,-8.6c8.5,-3.3 11.2,-2.5 17.3,4.3c7.4,8.3 17.4,11.1 27.9,13.1c8.1,1.5 16.3,3.2 24.3,5.2c9.9,2.5 16.9,-2.3 22.8,-8.9c6.6,-7.4 12.5,-15.5 18.7,-23.4c1.4,-1.8 2.9,-3.6 4.6,-5.8c0.6,0.8 1.2,1.3 1.3,1.8c2.5,10.8 5.3,21.6 7.3,32.6c1.2,7.1 -0.7,13.6 -7.8,17.4c-1.3,0.7 -2.4,1.7 -3.6,2.6c-5,3.7 -5.8,6.5 -1.7,11.2c3.4,3.9 2,5.9 -1.7,7.4c-4,1.6 -8.1,2.7 -12.1,4.2c-3.6,1.3 -7.1,2.9 -10.7,4.3c0,0.7 0.1,1.4 0.1,2.1c2.5,0.6 5.1,1.7 7.6,1.7c4,0 7.9,-1.2 11.9,-1.2c2.3,0 4.6,1.6 6.9,2.4c-1.1,2.4 -1.6,6.2 -3.3,6.9c-6.1,2.5 -12.6,4.1 -19,5.6c-5.5,1.3 -11.2,1.8 -16.6,3.3c-2.2,0.6 -4,2.9 -6,4.5c0.3,0.9 0.6,1.7 0.8,2.6c5.3,0 10.7,0.3 16,0c4.5,-0.2 8.9,-1.5 13.4,-1.5c2.1,0 5.5,1.3 5.9,2.8c0.7,2 -0.2,5.5 -1.7,6.9c-2.5,2.2 -5.9,3.9 -9.2,4.5c-15.7,2.9 -31.4,5.4 -47.1,8.1c-1.8,0.3 -3.5,0.9 -5.9,1.5c3.1,4.7 7.3,6.1 11.8,6.1c5.1,0.1 10.3,-0.8 15.4,-0.7c2.3,0.1 5.6,1.1 6.5,2.8c1.5,2.9 0.6,6.7 -3,7.8c-6.8,2.1 -13.7,3.7 -20.6,5.3c-4.7,1.1 -9.5,1.7 -14.1,3c-1.6,0.4 -2.8,2.3 -4.2,3.5c1.7,1.1 3.2,2.8 5,3.1c3.1,0.5 6.4,-0.2 9.5,0.3c2,0.3 5.5,1.9 5.4,2.8c-0.1,2.5 -1,5.8 -2.8,7.1c-2.4,1.6 -5.9,1.8 -9,2.3C514.5,550.4 504.2,551.8 493.2,553.4z" fill="#269B33"/>
    <path d="M431.6,128.3c16,4.9 30.5,15.6 48.7,12.1c3.1,-0.6 6.1,-1.7 9,-3c4.2,-1.9 7.7,-1.2 11,1.8c9.1,8.4 12.4,18.7 10.2,30.7c-3.1,17 -7.1,33.9 -9.5,51c-2.4,17.6 -3.2,35.4 -4.7,53.1c-0.2,2.5 -0.1,5 -0.2,7.5c-0.5,8.4 -5,12.9 -13.5,12.5c-6.9,-0.3 -13.8,-1.9 -20.7,-2.6c-5.7,-0.6 -11.1,0.5 -16.1,4.4c4.7,4.5 10.3,5.8 16.1,6.6c5.1,0.7 10.3,1 15.4,1.1c4.6,0.1 7.3,2.1 9,6.4c4.8,12 4.3,24.5 3.5,36.9c-0.2,3.8 -1.3,7.6 -1.5,11.4c-0.5,7.1 -4.5,11.9 -10.8,14.2c-5.2,1.9 -10.9,3.1 -16.4,3.9c-18.1,2.5 -36.2,1.4 -53.9,-3.1c-10.2,-2.6 -15.1,-9.3 -15.2,-20.8c-0.5,-54.8 -1.1,-109.6 -0.8,-164.4c0.1,-19.4 2.4,-38.8 3.8,-58.2c0.2,-2.3 0.6,-4.6 1.1,-6.9c2.5,-10.9 8.3,-14.9 19.6,-13.6c14.7,1.7 29.4,3.5 44,5.3c2.9,0.4 6.3,0.8 6.5,4.9c0.2,4.1 -2.5,6.4 -6,6.7c-6.9,0.6 -13.9,0.5 -20.9,0.7c-2.4,0.1 -4.8,0 -7.2,0C431.7,127.3 431.7,127.8 431.6,128.3z" fill="#269B33"/>
    <path d="M332,140.1c3.9,2.1 7.6,4.5 11.6,6.1c4.8,1.9 9.8,3.1 14.7,4.8c12.4,4.3 17.7,11.6 17.7,24.7c0.1,38.5 -0.4,76.9 0.3,115.3c0.3,18.2 3,36.4 4.4,54.6c0.4,4.6 0.7,9.4 0.1,14c-1.5,11.4 -8.5,17.2 -20.9,18c-2,0.1 -4,0.1 -6,0c-7.5,-0.4 -9.9,-4.5 -6.9,-11.5c3.5,-8.1 7.5,-16 10.3,-24.3c4.5,-13.9 4.6,-28 0.9,-42.3c-6,-22.8 -21.8,-31 -43.4,-29.3c-15.5,1.2 -30.9,1.7 -46.2,-0.6c-5.9,-0.9 -11.4,-2.9 -14.3,-8.7c-3.8,-7.5 -0.2,-13.2 8.1,-13.5c3.4,-0.1 6.8,-0.9 10.1,-1.4c-0.1,-0.5 -0.1,-1 -0.2,-1.5c-0.4,-0.3 -0.8,-0.7 -1.2,-0.7c-12.2,-1.4 -17.5,-9.1 -19.8,-20.4c-3.5,-17.4 -8.2,-34.6 -11.7,-52c-2.8,-13.8 -4.9,-27.8 -3.1,-42.1c1.4,-10.9 7.6,-17.4 18.2,-19.8c0.6,-0.1 1.3,-0.3 1.9,-0.5c0.1,0 0.2,-0.2 1.2,-1.4c-2.5,-1 -4.7,-2.1 -7,-2.8c-3,-0.9 -7.3,-1.2 -6.6,-5.2c0.5,-2.9 3.1,-6.1 5.7,-7.9c2.2,-1.6 5.7,-2.1 8.6,-2.1c14.5,0.1 29,-0.1 43.4,1.2c15.5,1.4 30.9,4.3 46.3,6.7c2.3,0.4 4.6,1.1 6.5,2.2c4.1,2.5 4,6.6 2.2,10.1c-2,4 -0.9,7 1.6,10c0.9,1.2 1.8,2.4 2.6,3.7c4.8,7.4 1.2,14.7 -7.7,15.1c-5.3,0.2 -10.6,-0.6 -15.9,-0.8c-1.6,-0.1 -3.1,0.2 -4.7,0.3C332.4,138.8 332.2,139.5 332,140.1z" fill="#269B33"/>
    <path d="M535.6,350.1c8.8,5.7 17.3,8.2 26.3,9.2c7.6,0.8 15.3,0.8 22.9,0.9c5.1,0.1 7.3,2.6 6,7.6c-1.3,5.1 -5.9,8.7 -12,8.8c-10.5,0.2 -21,0 -31.5,0.1c-2.3,0 -4.6,0.7 -6.9,1.1c-0.1,0.6 -0.2,1.3 -0.3,1.9c2.9,1.2 5.7,2.7 8.8,3.6c4.3,1.2 8.9,1.5 13.1,3c2.6,0.9 6.9,4.1 6.6,5.1c-1,3.1 -3.2,6.9 -6,8.2c-2.9,1.4 -7.1,0.8 -10.6,0.1c-10.9,-2.3 -21.6,-5.1 -32.5,-7.5c-12.2,-2.8 -15.2,-10.1 -15.6,-20.1c-0.9,-23.5 -0.1,-46.8 3.4,-70.2c1.5,-10.1 1.8,-20.6 1.3,-30.9c-0.8,-15.7 2.5,-30.3 8.4,-44.7c5,-12.1 9.9,-24.3 10,-37.9c0,-1.9 2,-4.2 3.7,-5.5c6.3,-5.2 14,-6.1 21.7,-5.3c12.1,1.3 23.6,4.6 33.4,12.1c3.3,2.5 6.9,5.8 8.4,9.5c5.2,12.4 10.2,24.9 13.9,37.8c1.9,6.3 1,13.5 1.1,20.3c0.1,23.2 -1.6,46.1 -7.1,68.7c-4.3,17.6 -15.2,24.9 -33.2,23.2c-9.9,-0.9 -20,-0.2 -29.9,-0.2C538.2,349.1 537.5,349.5 535.6,350.1z" fill="#269B33"/>
    <path d="M221.5,158c2.7,14.1 6.2,26.8 7.3,39.8c1.6,19.5 1.7,39.2 2.2,58.8c0.2,7.1 -1.5,8.6 -8.5,8.3c-9.1,-0.3 -18.3,-1 -27.4,-1c-21.1,0 -41.6,4.1 -61.8,10c-1.6,0.5 -3.2,0.9 -4.8,1.2c-7.5,1.7 -11.9,-1.4 -12.6,-9.1c-0.6,-6.3 -0.6,-12.6 -1.1,-18.9c-1.1,-14.9 -1.6,-29.9 -3.6,-44.7c-2.7,-20 3.3,-35 21,-45.6c19.3,-11.5 40,-16.9 62.3,-16.4c5.7,0.1 8.5,2.8 8.6,7.5c0.1,3.9 -2.3,5.9 -5.5,6.7c-5.9,1.6 -11.9,3 -17.9,4.2c-5.3,1 -10.3,2.3 -13.2,9C185,164.9 203.6,169.4 221.5,158z" fill="#269B33"/>
</svg>